# xmcd
#
# Track frame offsets:
#	150
#	15150
#	28617
#	45717
#	58300
#	73437
#	86120
#	99652
#	117152
#	130427
#
# Disc length: 1930 seconds
#
# Revision: 2
# Processed by: cddbd v1.5.2PL0 Copyright (c) Steve Scherf et al.
# Submitted via: EZCDAudioConverter 6.0.7.1
#
DISCID=8d07880a
DTITLE=Barbara Mandrell - Fooled By A Feeling
DYEAR=1995
DGENRE=Country
TTITLE0=Darlin'
TTITLE1=Fooled By A Feeling
TTITLE2=Only A Lonely Heart Knows
TTITLE3=It Can Wait
TTITLE4=Look What Love Has Done
TTITLE5=Love Is Thin Ice
TTITLE6=Take Care Of You
TTITLE7=Years
TTITLE8=Hold Me
TTITLE9=No One Mends A Broken Heart Like You
EXTD=
EXTT0=
EXTT1=
EXTT2=
EXTT3=
EXTT4=
EXTT5=
EXTT6=
EXTT7=
EXTT8=
EXTT9=
PLAYORDER=
